<?xml version="1.0" encoding="utf-8"?>
<!-- Generator: Adobe Illustrator 18.1.1, SVG Export Plug-In . SVG Version: 6.00 Build 0)  -->
<!DOCTYPE svg PUBLIC "-//W3C//DTD SVG 1.1//EN" "http://www.w3.org/Graphics/SVG/1.1/DTD/svg11.dtd">
<svg version="1.1" id="Layer_1" xmlns="http://www.w3.org/2000/svg" xmlns:xlink="http://www.w3.org/1999/xlink" x="0px" y="0px"
	 viewBox="0 0 210.4 184.6" enable-background="new 0 0 210.4 184.6" xml:space="preserve">
<g>
	<g>
		<g>
			<path fill="#FFFFFF" d="M132.2,13.2c0.9,1.6-0.8,7.4-0.8,7.4s5.2-6,7.6-6.3c2.2-0.3,8.3,3.7,8.3,3.7s-3.4-4.2-3-5.8
				c0.5-2.2,7.1-5.4,7.1-5.4s-7.8,1.6-10,0.5c-1.9-1-4.8-7.3-4.8-7.3s-0.8,6.6-2.3,8c-1.9,1.7-10.2,1.6-10.2,1.6
				S131,11.3,132.2,13.2z"/>
			<path fill="#FFFFFF" d="M77.8,49.9c2.9,3.1,10.7,8.6,15.9,5.5c5.2-3.2,0.7-12.4-2-15.6C89.1,36.4,81,29.8,76,32.8
				C68.5,37.3,74.9,46.8,77.8,49.9z"/>
			<path fill="#FFFFFF" d="M73.4,143.9c5.2-8.9,9.5-18.2,14.2-27.4c1.6-3.1,2.9-6.3,4.2-9.6l0.2,0c0,0,7-16.9,11.5-23.4
				c4.5-6.5,36.9-41.8,36.9-41.8s-1.3,10.5-0.7,13.9c0.4,2.1,0,4.9,5.3,5.5c5.2,0.6,6.2-3.8,6.3-6.7c0.1-2.1-0.8-6.9-0.8-6.9
				l-2.7-26.7c0,0-6.8-4.8-14.4,3.8c0,0,7,10.3,6.3,14.2c0.3,0.1-24.2,19.8-34.3,25.1c-3.3,1.7-10.7,5.1-16.6,3.9
				C80,66.2,71.2,57,71.2,57S48.7,33.6,51.6,36.9c33.1,36.4,23.6,44.3,23.2,46.6c-0.4,2.1-5.4,12-6,14.8c-2.9,7.2-6.3,14.1-9.3,21.3
				c-7.3,17.2-8.4,17.9-27,17.1c-0.3,0-0.6,0-1,0c-5.3-0.4-7.2-3.1-4.5-7.5c3.1-5.2,7.2-9.7,10.5-14.2c-19.1-1.1-33,6.7-36.9,24.7
				c-2.3,10.6,1.7,17.5,12.3,19c13,1.7,26.1,2,38.9-1C60.5,155.6,68.7,152,73.4,143.9z"/>
			<path fill="#FFFFFF" d="M172.2,86.3c-2.7-0.5-5.6-0.8-8.4-0.8c-13.6-0.1-27.1-0.1-40.7,0c-10.5,0.1-18.5,4.7-23,14.4
				c-5.5,11.9-10.6,24-15.8,36c-4.1,9.5-8.2,19.1-18,26.1c2.9,0,4.6,0.1,6.3,0c0.7,0,1.4-0.4,2-0.5c11-2.2,20-8,28.3-15.2
				c1.2-1,2.8-2.1,4.3-2.1c10.6-0.2,21.1-0.3,31.7,0c8.8,0.3,16.9-1.3,23.7-7c11.6-9.7,17-23,19.8-37.3
				C184.1,91.8,180.5,88,172.2,86.3z M154.6,112.8c-3.8,9.6-6.8,11.6-17.1,11.5c-7.3,0-14.6,0-21.9-0.1c-0.3,0-0.5-0.2-1.4-0.5
				c2.5-5.6,4.7-11.1,7.3-16.3c0.5-1,2.3-2,3.5-2c8.3-0.2,16.6-0.2,24.9-0.1C155.1,105.4,156.5,107.8,154.6,112.8z"/>
		</g>
		<g>
			<path fill="#FFFFFF" d="M112.3,161.1c-0.7,1.2-1.4,2.1-2.3,2.7c-0.7,0.5-1.6,0.9-2.6,1.1c-0.8,0.2-1.7,0.2-2.7,0.2
				c-0.4,0-0.7,0-1.2,0c-0.4,0-0.8,0-1,0c-0.1,0-0.3,0-0.7,0s-0.6,0-0.9,0c-1.4,0-2.3-0.1-2.8-0.4c-0.4-0.2-0.4-0.5-0.2-1
				c0.2-0.3,0.4-0.6,0.5-0.7c0.2-0.2,0.6-0.4,1-0.5h6.7c0.3,0,0.8-0.2,1.3-0.5c0.6-0.3,1-0.6,1.1-0.9c0.5-0.9-0.1-1.4-1.8-1.5
				c-2.7-0.1-4.3-0.3-4.7-0.4c-1.5-0.5-1.6-1.8-0.5-3.8c0.7-1.2,1.7-2.1,2.9-2.8c1-0.5,2.2-0.9,3.7-1.1c1-0.1,2.1-0.2,3.6-0.2
				c0.1,0,0.3,0,0.6,0c0.3,0,0.5,0,0.6,0c1.1,0,2,0.1,2.6,0.2c0.9,0.2,1.1,0.6,0.8,1.2c-0.3,0.5-0.7,0.8-1.3,1.1
				c-0.5,0.2-1,0.3-1.5,0.3H108c-0.3,0-0.7,0.1-1.2,0.4c-0.5,0.3-0.8,0.6-1,0.8c-0.4,0.6-0.3,1,0.1,1.3c0.3,0.2,1,0.3,1.9,0.3
				c0.2,0,0.4,0,0.8,0c0.4,0,0.6,0,0.8,0c1.1,0,1.8,0.1,2.4,0.2c0.7,0.2,1.2,0.6,1.3,1.1C113.3,159,113,159.9,112.3,161.1z"/>
			<path fill="#FFFFFF" d="M129.6,155.5c-0.1,0.2-0.2,0.3-0.3,0.5c-0.1,0.2-0.2,0.3-0.3,0.5c-0.3,0.6-0.7,1-1.1,1.4
				c-0.6,0.5-1.4,0.9-2.4,1.2c-0.7,0.2-1.5,0.4-2.4,0.4c-0.9,0.1-1.8,0.1-2.7,0.2c-1,0.1-1.9,0.3-2.6,0.6c-0.5,0.2-1,0.5-1.4,0.8
				c-0.3,0.3-0.6,0.7-0.8,1.1c-0.1,0.2-0.2,0.4-0.3,0.6c-0.1,0.2-0.2,0.4-0.3,0.6c-0.3,0.5-0.6,0.8-0.8,1c-0.4,0.3-0.9,0.4-1.5,0.4
				c-0.6,0-0.9-0.2-0.9-0.7c0-0.5,0.2-1.1,0.7-2c0.9-1.6,2-2.9,3.1-3.7c0.9-0.7,2-1.2,3.1-1.4c0.7-0.1,1.7-0.2,2.9-0.2h0.9
				c0.9,0,1.6-0.1,2-0.2c0.6-0.2,1.1-0.6,1.4-1.1c0.3-0.4,0.2-0.8-0.1-1c-0.2-0.2-0.5-0.2-0.9-0.2h-5.6c-0.5,0-0.8-0.1-1-0.5
				c-0.2-0.3-0.3-0.6-0.1-0.9c0.4-0.6,1.1-1.1,2.3-1.3c0.8-0.2,1.8-0.3,2.9-0.3c0.2,0,0.4,0,0.6,0c0.2,0,0.3,0,0.5,0
				c1.7,0,2.8,0,3.4,0.1c1.2,0.1,2,0.5,2.4,1C130.5,153.2,130.4,154.2,129.6,155.5z"/>
			<path fill="#FFFFFF" d="M145.9,158.4c-1.1,1.8-2.2,3.2-3.5,4.3c-1.2,0.9-2.5,1.6-4,2c-1.3,0.3-2.9,0.5-4.8,0.5
				c-0.1,0-0.4,0-0.7,0c-0.3,0-0.6,0-0.8,0c-1.2,0-2.1-0.1-2.6-0.2c-0.5-0.1-0.9-0.3-1.1-0.6c-0.3-0.4-0.5-1.2-0.4-2.5
				c0.1-1.4,0.3-2.5,0.8-3.3c1.5-2.5,3.2-4.3,5.3-5.5c2-1.1,4.5-1.6,7.4-1.6c2.9,0,4.6,0.6,5.3,1.8
				C147.5,154.4,147.2,156.2,145.9,158.4z M142.4,158.3c0.8-1.4,1-2.4,0.6-3.1c-0.4-0.6-1.5-1-3.2-1c-1.7,0-3,0.3-4,0.8
				c-1.1,0.6-2.1,1.6-2.9,3.1c-0.8,1.4-1.1,2.4-0.9,3.1c0.3,0.9,1.3,1.3,3.1,1.3c1.5,0,2.8-0.3,4-1
				C140.4,160.9,141.5,159.8,142.4,158.3z"/>
			<path fill="#FFFFFF" d="M157.1,164c-0.3,0.5-0.6,0.8-0.9,1s-0.7,0.3-1.3,0.3c-0.2,0-0.7-0.2-1.5-0.7c-0.8-0.4-1.6-0.9-2.4-1.3
				c-0.9-0.5-1.4-0.7-1.6-0.7c-0.6,0-1.3,0.2-1.9,0.6c-0.5,0.4-1,0.8-1.5,1.2c-0.6,0.4-1.1,0.6-1.7,0.6c-0.5,0-0.8-0.2-0.8-0.7
				c0-0.3,0.2-0.8,0.6-1.4c0.1-0.2,0.2-0.4,0.3-0.6c0.1-0.2,0.2-0.3,0.3-0.5c0.9-1.6,1.9-2.8,3-3.6c0.9-0.7,1.9-1.1,3-1.3
				c0.6-0.1,1.6-0.2,2.8-0.2c1.1,0,1.9,0,2.3-0.1c0.7-0.2,1.3-0.6,1.6-1.2c0.3-0.5,0.3-0.8,0.1-1c-0.1-0.2-0.4-0.2-0.9-0.2h-5.6
				c-0.6,0-1-0.1-1.1-0.3c-0.1-0.2,0-0.6,0.3-1.1c0.3-0.4,0.7-0.8,1.4-1c0.8-0.3,1.9-0.4,3.3-0.4c0.2,0,0.4,0,0.7,0
				c0.3,0,0.5,0,0.6,0c1.9,0,3.2,0.1,4,0.2c1.1,0.2,1.7,0.6,1.9,1.2c0.2,0.6,0,1.5-0.7,2.7c-0.5,0.8-1.3,1.7-2.5,2.5
				c-1.2,0.7-2.4,1.5-3.6,2.2c-0.2,0.3,0,0.6,0.3,1.1c0.4,0.4,0.7,0.8,1.1,1.3C157.4,163.1,157.4,163.6,157.1,164z"/>
			<path fill="#FFFFFF" d="M174.4,152.9c-0.3,0.5-0.8,0.9-1.5,1.1c-0.7,0.2-1.5,0.5-2.2,0.7c-0.8,0.4-1.5,1-2,1.8l-4.3,7.4
				c-0.2,0.4-0.6,0.7-1.1,0.9c-0.5,0.2-0.9,0.3-1.3,0.3c-0.3,0-0.6-0.1-0.7-0.4c-0.1-0.2-0.1-0.5,0.1-0.8l4.4-7.6
				c0.4-0.8,0.5-1.3,0-1.7c0,0-0.5-0.2-1.4-0.7c-0.5-0.2-0.6-0.6-0.4-1c0.4-0.6,1.1-1.1,2.3-1.3c0.8-0.2,1.8-0.3,2.9-0.3
				c0.2,0,0.3,0,0.5,0s0.3,0,0.4,0c0.1,0,0.3,0,0.6,0c0.3,0,0.6,0,0.8,0c1.4,0,2.3,0.1,2.8,0.4C174.6,152.1,174.6,152.4,174.4,152.9
				z"/>
			<path fill="#FFFFFF" d="M185,161.1c-0.7,1.2-1.4,2.1-2.3,2.7c-0.7,0.5-1.6,0.9-2.6,1.1c-0.8,0.2-1.7,0.2-2.7,0.2
				c-0.4,0-0.7,0-1.2,0c-0.4,0-0.8,0-1,0c-0.1,0-0.3,0-0.7,0c-0.3,0-0.6,0-0.9,0c-1.4,0-2.3-0.1-2.8-0.4c-0.4-0.2-0.4-0.5-0.2-1
				c0.2-0.3,0.4-0.6,0.5-0.7c0.2-0.2,0.6-0.4,1-0.5h6.7c0.3,0,0.8-0.2,1.3-0.5c0.6-0.3,1-0.6,1.1-0.9c0.5-0.9-0.1-1.4-1.8-1.5
				c-2.7-0.1-4.3-0.3-4.7-0.4c-1.5-0.5-1.6-1.8-0.5-3.8c0.7-1.2,1.7-2.1,2.9-2.8c1-0.5,2.2-0.9,3.7-1.1c1-0.1,2.1-0.2,3.6-0.2
				c0.1,0,0.3,0,0.6,0c0.3,0,0.5,0,0.6,0c1.1,0,2,0.1,2.6,0.2c0.9,0.2,1.1,0.6,0.8,1.2c-0.3,0.5-0.7,0.8-1.3,1.1
				c-0.5,0.2-1,0.3-1.5,0.3h-5.6c-0.3,0-0.7,0.1-1.2,0.4c-0.5,0.3-0.8,0.6-1,0.8c-0.4,0.6-0.3,1,0.1,1.3c0.3,0.2,1,0.3,1.9,0.3
				c0.2,0,0.4,0,0.8,0c0.4,0,0.6,0,0.8,0c1.1,0,1.8,0.1,2.4,0.2c0.7,0.2,1.2,0.6,1.3,1.1C185.9,159,185.7,159.9,185,161.1z"/>
			<path fill="#FFFFFF" d="M102.6,184.3h-8.3c-1.5,0-2.5,0-3-0.1c-1.5-0.1-2.5-0.4-3.2-0.7c-0.9-0.5-1-1.2-0.5-2.2
				c0.5-0.8,1.2-1.5,2.2-2c1-0.6,1.7-1.1,2-1.7c0.1-0.2,0.2-0.5,0.3-1c0.1-0.5,0.2-0.8,0.3-0.9c0.5-0.8,1.3-1.5,2.3-1.9
				c0.8-0.3,1.8-0.6,2.9-0.7c0.5-0.1,1.3-0.1,2.1-0.1c1.1,0,1.9,0,2.3,0.1c0.9,0.1,1.6,0.4,1.9,0.7c0.4,0.4,0.4,1.1-0.1,1.9
				c-0.4,0.6-0.9,1.1-1.6,1.5c-0.6,0.2-1.1,0.4-1.7,0.7c-0.6,0.3-1.1,0.7-1.4,1.2c-0.3,0.6-0.3,1,0.2,1.4c0.4,0.2,0.8,0.4,1.2,0.4
				c0.6,0,1.3-0.3,1.9-0.9c0.5-0.4,1-0.8,1.5-1.1c0.1,0,0.3,0.1,0.5,0.2c0.2,0.1,0.3,0.2,0.3,0.3c-0.1,0.2-0.3,0.9-0.7,2
				c-0.2,0.5-0.3,0.8-0.4,1L102.6,184.3z M97,182c0.3-0.5,0-1.1-0.9-1.5c-0.8-0.4-1.6-0.6-2.3-0.6c-0.6,0-1.2,0.1-1.8,0.3
				c-0.9,0.3-1.5,0.7-1.8,1.3c-0.3,0.5,0,0.9,0.9,1.3c0.7,0.3,1.4,0.5,2.1,0.5c0.8-0.1,1.4-0.2,1.8-0.2
				C96.1,182.7,96.8,182.4,97,182z M101.3,175.6c0.3-0.5,0.2-0.9-0.4-1.1c-0.4-0.1-1-0.2-1.9-0.2c-0.8,0-1.5,0.1-2.2,0.3
				c-0.9,0.3-1.5,0.6-1.8,1.1c-0.3,0.6-0.3,1,0.2,1.2c0.3,0.2,0.9,0.3,1.8,0.3c1,0,1.8-0.1,2.7-0.4
				C100.4,176.5,101,176.1,101.3,175.6z"/>
			<path fill="#FFFFFF" d="M128.9,182.9c-0.3,0.6-1,1-2.1,1.2c-0.7,0.2-1.7,0.2-2.8,0.2c-0.2,0-0.5,0-0.7,0s-0.4,0-0.5,0
				c-2.5,0-4.1-0.1-4.9-0.4c-0.9-0.3-1.2-1-0.9-1.9c0.2-0.8,0.9-2.2,2.2-4.4c1.3-2.2,2.2-3.6,2.9-4.4c0.9-1,1.9-1.6,3.1-2
				c1.2-0.3,3-0.5,5.5-0.5c0.1,0,0.3,0,0.7,0c0.3,0,0.6,0,0.8,0c1.4,0,2.4,0.1,2.8,0.4c0.4,0.2,0.4,0.6,0.2,1
				c-0.2,0.3-0.4,0.6-0.5,0.7c-0.2,0.2-0.6,0.4-1.1,0.5h-6.7c-0.3,0-0.7,0.2-1.2,0.5c-0.5,0.3-0.9,0.7-1,0.9
				c-0.2,0.3-0.2,0.6-0.1,0.8c0.1,0.3,0.3,0.4,0.6,0.4h6.7c0.4,0.2,0.5,0.4,0.6,0.6c0,0.2-0.1,0.4-0.2,0.6l-0.1,0.2
				c-0.2,0.4-0.6,0.7-1.1,1c-0.5,0.3-1.1,0.4-1.6,0.4h-5.9c-0.4,0-0.7,0.1-1.1,0.4c-0.4,0.3-0.7,0.6-0.9,0.9
				c-0.2,0.3-0.2,0.6-0.1,0.9c0.1,0.3,0.4,0.4,0.7,0.4h6.7c0.3,0.2,0.4,0.3,0.4,0.6C129.2,182.3,129.1,182.5,128.9,182.9z"/>
			<path fill="#FFFFFF" d="M152,172.2c-0.3,0.6-1.4,1.8-3.3,3.7c-1.4,1.4-3.1,3.1-5,5c-1.7,1.6-2.6,2.5-2.9,2.7
				c-0.6,0.5-1.3,0.8-2,0.9c-0.4,0.1-0.9,0.1-1.5,0.1c-0.6,0-1.2-0.1-1.7-0.4c-0.7-0.3-1-0.7-0.9-1.2c0.1-1,0.3-2.4,0.6-4.2
				c0.3-1.5,0.6-3,0.9-4.4c0.3-1.4,0.5-2.2,0.6-2.4c0.2-0.4,0.6-0.7,1.2-1c0.5-0.2,0.9-0.4,1.2-0.4c0.3,0,0.7,0.1,1,0.3
				c0.3,0.2,0.5,0.5,0.5,0.7c0,0.3-0.2,1.4-0.6,3.1c-0.4,1.7-0.6,2.9-0.7,3.7c-0.1,1.2,0.1,1.8,0.6,1.8c0.5,0,1.5-0.8,3.1-2.5
				c1.5-1.5,3-3.1,4.5-4.6c1.7-1.7,3-2.5,3.7-2.5c0.6,0,1,0.2,1.1,0.5C152.2,171.6,152.1,171.8,152,172.2z"/>
			<path fill="#FFFFFF" d="M160.1,182.9c-0.3,0.6-1,1-2.1,1.2c-0.7,0.2-1.7,0.2-2.8,0.2c-0.2,0-0.5,0-0.7,0s-0.4,0-0.5,0
				c-2.5,0-4.1-0.1-4.9-0.4c-0.9-0.3-1.2-1-0.9-1.9c0.2-0.8,0.9-2.2,2.2-4.4c1.3-2.2,2.2-3.6,2.9-4.4c0.9-1,1.9-1.6,3.1-2
				c1.2-0.3,3-0.5,5.5-0.5c0.1,0,0.3,0,0.7,0c0.3,0,0.6,0,0.8,0c1.4,0,2.4,0.1,2.8,0.4c0.4,0.2,0.4,0.6,0.2,1
				c-0.2,0.3-0.4,0.6-0.5,0.7c-0.2,0.2-0.6,0.4-1.1,0.5H158c-0.3,0-0.7,0.2-1.2,0.5c-0.5,0.3-0.9,0.7-1,0.9
				c-0.2,0.3-0.2,0.6-0.1,0.8c0.1,0.3,0.3,0.4,0.6,0.4h6.7c0.4,0.2,0.6,0.4,0.6,0.6c0,0.2-0.1,0.4-0.2,0.6l-0.1,0.2
				c-0.2,0.4-0.6,0.7-1.1,1c-0.5,0.3-1.1,0.4-1.6,0.4h-5.9c-0.4,0-0.7,0.1-1.1,0.4c-0.4,0.3-0.7,0.6-0.9,0.9
				c-0.2,0.3-0.2,0.6-0.1,0.9c0.1,0.3,0.4,0.4,0.7,0.4h6.7c0.3,0.2,0.4,0.3,0.4,0.6C160.4,182.3,160.3,182.5,160.1,182.9z"/>
			<path fill="#FFFFFF" d="M181.6,176.9c-0.2,0.3-0.4,0.7-0.7,1.2c-0.3,0.6-0.5,0.9-0.6,1.1c-0.6,1-1.1,1.8-1.7,2.4
				c-0.7,0.9-1.5,1.5-2.3,2c-1,0.5-2.1,0.8-3.3,0.8c-0.4,0-0.8-0.1-1.2-0.3c-0.4-0.2-0.8-0.5-1-0.8c-0.2-0.2-0.3-0.4-0.5-0.7
				c-0.1-0.2-0.1-0.5,0-0.7c0.1-0.4,0.3-1.3,0.7-2.8c0.4-1.5,0.7-2.5,0.8-3.1c0.1-1-0.1-1.4-0.5-1.4c-0.5,0-1,0.3-1.6,1
				c-0.4,0.4-0.7,0.9-1.1,1.5l-3.5,6c-0.2,0.4-0.6,0.6-1,0.8c-0.4,0.1-0.8,0.2-1.2,0.2c-0.5,0-0.8-0.1-0.9-0.2
				c-0.2-0.2-0.2-0.4-0.1-0.8c0.2-0.4,0.4-0.8,0.7-1.4c0.3-0.5,0.6-1.1,1.1-1.9c0.2-0.3,0.4-0.6,0.6-1c0.2-0.3,0.4-0.7,0.6-1
				c0.1-0.1,0.3-0.5,0.6-1.1s0.6-1.1,0.8-1.4c0.5-0.9,1-1.7,1.6-2.3c0.7-0.8,1.4-1.4,2.2-1.8c0.9-0.5,2-0.7,3.1-0.7
				c1.2,0,2,0.3,2.4,0.8c0.4,0.4,0.5,1.1,0.4,2.1c-0.1,0.5-0.3,1.6-0.7,3.2c-0.1,0.6-0.3,1.1-0.4,1.7c-0.1,0.6-0.2,1.2-0.1,1.6
				c0,0.1,0,0.3-0.1,0.4c0,0.2,0.2,0.2,0.5,0.2c0.3,0,0.5-0.1,0.7-0.2c0.2-0.1,0.4-0.3,0.6-0.4l4.5-7.7c0.2-0.4,0.7-0.8,1.3-1.1
				c0.6-0.3,1.1-0.5,1.4-0.5c0.5,0,0.7,0.3,0.7,0.8c0,0.4-0.2,1.1-0.6,1.9c-0.3,0.6-0.6,1.3-1.1,2.1c-0.2,0.4-0.4,0.7-0.5,0.9
				C181.8,176.5,181.7,176.7,181.6,176.9z"/>
			<path fill="#FFFFFF" d="M195.6,172c-0.3,0.5-0.8,0.9-1.5,1.1c-0.7,0.2-1.5,0.5-2.2,0.7c-0.8,0.4-1.5,1-2,1.8l-4.3,7.4
				c-0.2,0.4-0.6,0.7-1.1,0.9c-0.5,0.2-0.9,0.3-1.3,0.3c-0.3,0-0.5-0.1-0.7-0.4c-0.1-0.2-0.1-0.5,0.1-0.8l4.4-7.6
				c0.4-0.8,0.5-1.3,0-1.7c0,0-0.5-0.2-1.4-0.7c-0.5-0.2-0.6-0.6-0.4-1c0.4-0.6,1.1-1.1,2.3-1.3c0.8-0.2,1.8-0.3,2.8-0.3
				c0.2,0,0.3,0,0.5,0c0.1,0,0.3,0,0.4,0c0.1,0,0.3,0,0.6,0c0.3,0,0.6,0,0.8,0c1.4,0,2.3,0.1,2.8,0.4
				C195.8,171.2,195.9,171.6,195.6,172z"/>
			<path fill="#FFFFFF" d="M206.2,180.3c-0.7,1.2-1.4,2.1-2.3,2.7c-0.7,0.5-1.6,0.9-2.6,1.1c-0.8,0.2-1.7,0.2-2.7,0.2
				c-0.4,0-0.7,0-1.2,0c-0.4,0-0.8,0-1,0c-0.1,0-0.3,0-0.7,0s-0.6,0-0.9,0c-1.4,0-2.3-0.1-2.8-0.4c-0.4-0.2-0.4-0.5-0.2-1
				c0.2-0.3,0.4-0.6,0.5-0.7c0.2-0.2,0.6-0.4,1-0.5h6.7c0.3,0,0.8-0.2,1.3-0.5c0.6-0.3,1-0.6,1.1-0.9c0.5-0.9-0.1-1.4-1.8-1.5
				c-2.7-0.1-4.3-0.3-4.7-0.4c-1.5-0.5-1.6-1.8-0.5-3.8c0.7-1.2,1.7-2.1,2.9-2.8c1-0.5,2.2-0.9,3.7-1.1c1-0.1,2.1-0.2,3.6-0.2
				c0.1,0,0.3,0,0.6,0c0.3,0,0.5,0,0.6,0c1.1,0,2,0.1,2.6,0.2c0.9,0.2,1.1,0.6,0.8,1.2c-0.3,0.5-0.7,0.8-1.3,1.1
				c-0.5,0.2-1,0.3-1.5,0.3h-5.6c-0.3,0-0.7,0.1-1.2,0.4c-0.5,0.3-0.8,0.6-1,0.8c-0.4,0.6-0.3,1,0.1,1.3c0.3,0.2,1,0.3,1.9,0.3
				c0.2,0,0.4,0,0.8,0c0.4,0,0.6,0,0.8,0c1.1,0,1.8,0.1,2.4,0.2c0.7,0.2,1.2,0.6,1.3,1.1C207.1,178.2,206.9,179.1,206.2,180.3z"/>
		</g>
	</g>
</g>
</svg>
